<svg width="100" height="100" viewBox="0 0 100 100" fill="none" xmlns="http://www.w3.org/2000/svg">
  <circle cx="50" cy="50" r="45" fill="url(#grad1)" fill-opacity="0.1"/>
  <defs>
    <linearGradient id="grad1" x1="0%" y1="0%" x2="100%" y2="100%">
      <stop offset="0%" style="stop-color:#3B82F6;stop-opacity:1" />
      <stop offset="100%" style="stop-color:#EC4899;stop-opacity:1" />
    </linearGradient>
  </defs>
  <path d="M35 30C35 30 20 45 20 60C20 75 35 85 50 85C65 85 80 75 80 60C80 45 65 30 65 30" 
        stroke="url(#grad1)" stroke-width="8" stroke-linecap="round" fill="none"/>
  <path d="M50 25C50 25 65 40 65 55C65 70 50 80 50 80C50 80 35 70 35 55C35 40 50 25Z" 
        fill="url(#grad1)" opacity="0.8"/>
  <circle cx="50" cy="55" r="5" fill="white"/>
</svg>
