<svg width="200" height="200" viewBox="0 0 200 200" fill="none" xmlns="http://www.w3.org/2000/svg">
  <defs>
    <filter id="cuteGlow" x="-20%" y="-20%" width="140%" height="140%" filterUnits="objectBoundingBox">
      <feGaussianBlur stdDeviation="8" result="coloredBlur"/>
      <feMerge>
        <feMergeNode in="coloredBlur"/>
        <feMergeNode in="SourceGraphic"/>
      </feMerge>
    </filter>
  </defs>

  <g filter="url(#cuteGlow)" opacity="0.9">
    <path d="M50 130 C 50 110, 90 100, 100 110 C 110 100, 150 110, 150 130 L 150 150 C 150 170, 110 160, 100 170 C 90 160, 50 170, 50 150 Z" stroke="#C4D7FF" stroke-width="6" fill="#F0F5FF"/>
    <path d="M100 110 L 100 170" stroke="#C4D7FF" stroke-width="4"/>
    
    <path d="M100 125 C 95 118, 85 118, 80 125 C 75 132, 85 142, 100 150 C 115 142, 125 132, 120 125 C 115 118, 105 118, 100 125 Z" fill="#9FBFFF"/>
    
    <path d="M75 90 L 78 95 L 85 96 L 80 101 L 81 108 L 75 104 L 69 108 L 70 101 L 65 96 L 72 95 Z" fill="#EBF1FF"/>
    <path d="M130 85 L 133 90 L 140 91 L 135 96 L 136 103 L 130 99 L 124 103 L 125 96 L 120 91 L 127 90 Z" fill="#EBF1FF"/>
    <path d="M105 95 L 107 98 L 112 99 L 108 102 L 109 107 L 105 104 L 101 107 L 102 102 L 98 99 L 103 98 Z" fill="#EBF1FF"/>
    <circle cx="90" cy="80" r="2.5" fill="#C4D7FF"/>
    <circle cx="115" cy="110" r="2" fill="#C4D7FF"/>
    <circle cx="70" cy="120" r="1.5" fill="#EBF1FF"/>
  </g>
</svg>
